#!OML:ASF H:\Terrain\Patient Classification 1\Walking\liu\liu.ASF
:FULLY-SPECIFIED
:DEGREES
97
root 10.347315 17.922081 -26.018299 3.671690 -2.558204 4.197446
lowerback -7.671697 -2.276384 -5.075862
upperback -0.314569 -2.722599 2.389178
thorax 4.302463 -1.467928 5.059824
lowerneck -23.142021 -5.415674 -13.886070
upperneck 21.732038 -6.107090 12.364551
head 11.543840 -2.433057 5.839317
rclavicle -0.000000 0.000000
rhumerus -47.851757 13.029940 -95.812424
rradius 42.111519
rwrist -23.882759
rhand -33.685081 -26.328060
rfingers 7.837522
rthumb -4.310801 -59.266129
lclavicle -0.000000 0.000000
lhumerus -22.619299 -23.472790 96.036491
lradius 38.443787
lwrist 9.578745
lhand -17.112480 -27.853210
lfingers 7.837522
lthumb 11.690470 4.829154
rfemur -36.259079 3.749152 17.572830
rtibia 50.978401
rfoot -22.875490 -11.754930
rtoes -20.490030
lfemur -5.613619 0.516349 -32.249802
ltibia 23.666941
lfoot -20.281910 8.122972
ltoes -0.987483
98
root 10.348712 17.914270 -25.886518 3.590631 -2.025694 3.991251
lowerback -7.591166 -2.354726 -4.760778
upperback -0.365891 -2.856172 2.410441
thorax 4.205751 -1.525326 4.891645
lowerneck -22.723469 -5.450214 -14.034460
upperneck 21.714001 -6.185465 12.467180
head 11.478610 -2.480852 5.890269
rclavicle 0.000000 0.000000
rhumerus -48.287582 13.096601 -95.888649
rradius 42.104919
rwrist -24.147861
rhand -34.135971 -25.763981
rfingers 7.837522
rthumb -4.746203 -58.693687
lclavicle 0.000000 0.000000
lhumerus -22.591030 -23.760880 96.113708
lradius 39.076290
lwrist 9.798239
lhand -16.741449 -27.837481
lfingers 7.837522
lthumb 12.048300 4.826250
rfemur -36.651230 4.055766 17.548189
rtibia 49.469860
rfoot -22.640530 -11.335170
rtoes -20.460880
lfemur -4.631033 0.118373 -32.059059
ltibia 22.892210
lfoot -20.281029 8.197200
ltoes -1.886973
99
root 10.347667 17.910641 -25.747261 3.612730 -1.568039 3.999666
lowerback -7.739545 -2.454683 -4.697836
upperback -0.425003 -2.988953 2.412696
thorax 4.239334 -1.589621 4.839890
lowerneck -22.402710 -5.422043 -14.284269
upperneck 21.867010 -6.153257 12.603470
head 11.481689 -2.480401 5.994747
rclavicle 0.000000 -0.000000
rhumerus -48.470730 13.038630 -95.775017
rradius 41.831131
rwrist -24.292400
rhand -34.139820 -25.275360
rfingers 7.837522
rthumb -4.749888 -58.204853
lclavicle 0.000000 -0.000000
lhumerus -22.630079 -24.104851 96.287842
lradius 39.729027
lwrist 10.405736
lhand -16.339069 -27.568970
lfingers 7.837522
lthumb 12.436380 5.073893
rfemur -37.160969 4.697517 17.178150
rtibia 48.067471
rfoot -22.684311 -11.006270
rtoes -19.103920
lfemur -3.628174 0.167193 -32.032772
ltibia 21.961390
lfoot -20.247150 7.843341
ltoes -1.627956
100
root 10.346534 17.907780 -25.603931 3.756610 -1.211287 4.201626
lowerback -8.025160 -2.584120 -4.903613
upperback -0.466989 -3.132459 2.379278
thorax 4.380266 -1.666467 4.896320
lowerneck -22.415470 -5.364436 -14.398451
upperneck 22.118690 -6.068194 12.661220
head 11.568151 -2.445190 6.058382
rclavicle 0.000000 0.000000
rhumerus -48.361061 12.840630 -95.553040
rradius 41.341957
rwrist -24.104080
rhand -33.590370 -25.185379
rfingers 7.837522
rthumb -4.219336 -58.125099
lclavicle 0.000000 0.000000
lhumerus -22.660551 -24.566740 96.407082
lradius 40.321270
lwrist 11.097899
lhand -16.515179 -27.578979
lfingers 7.837522
lthumb 12.266540 5.073035
rfemur -37.816902 5.452832 16.518259
rtibia 46.740318
rfoot -22.835890 -10.482362
rtoes -17.352390
lfemur -2.660603 0.362486 -32.159050
ltibia 20.800230
lfoot -20.046839 7.235393
ltoes -0.282144
101
root 10.348845 17.902828 -25.461590 3.824150 -0.860076 4.427181
lowerback -8.227483 -2.619507 -5.052322
upperback -0.431260 -3.152567 2.238027
thorax 4.533397 -1.681834 4.822433
lowerneck -22.446159 -5.511198 -14.388880
upperneck 22.267962 -6.270825 12.597751
head 11.654940 -2.544685 6.005483
rclavicle 0.000000 0.000000
rhumerus -48.516491 12.548800 -95.493195
rradius 41.259899
rwrist -23.591480
rhand -33.211639 -26.107069
rfingers 7.837522
rthumb -3.853575 -59.053062
lclavicle 0.000000 0.000000
lhumerus -22.649990 -25.454880 96.480339
lradius 40.956963
lwrist 11.687720
lhand -16.998409 -28.056822
lfingers 7.837522
lthumb 11.800580 4.619835
rfemur -38.379990 5.926943 15.895880
rtibia 45.414600
rfoot -22.925320 -9.935760
rtoes -18.635321
lfemur -1.458039 0.396200 -32.348801
ltibia 19.335140
lfoot -19.671410 6.932882
ltoes -0.826505
102
root 10.351627 17.910311 -25.322330 3.680193 -0.467191 4.398350
lowerback -8.258525 -2.581370 -4.830727
upperback -0.337952 -3.112296 2.091980
thorax 4.624939 -1.659768 4.545915
lowerneck -22.221760 -5.677848 -14.194619
upperneck 22.205481 -6.525387 12.331110
head 11.610940 -2.682328 5.828614
rclavicle -0.000000 -0.000000
rhumerus -48.725380 12.008699 -95.428741
rradius 41.336132
rwrist -23.222870
rhand -32.625122 -26.805899
rfingers 7.837522
rthumb -3.287207 -59.760582
lclavicle -0.000000 -0.000000
lhumerus -22.690580 -26.350830 96.571861
lradius 41.615860
lwrist 12.045990
lhand -17.339960 -28.529049
lfingers 7.837522
lthumb 11.471020 4.164424
rfemur -38.634972 6.222029 15.626270
rtibia 44.058411
rfoot -23.001112 -9.496839
rtoes -18.876881
lfemur 0.126499 0.369361 -32.285442
ltibia 17.634430
lfoot -19.236139 6.736796
ltoes -2.564958
103
root 10.351627 17.923840 -25.187689 3.469994 0.025860 4.291111
lowerback -8.112709 -2.651209 -4.609044
upperback -0.317121 -3.228973 2.072136
thorax 4.564670 -1.712216 4.390518
lowerneck -21.949951 -5.636422 -14.246540
upperneck 22.345730 -6.498789 12.338700
head 11.608850 -2.682240 5.849899
rclavicle -0.000000 0.000000
rhumerus -48.890598 11.720941 -95.296959
rradius 41.151657
rwrist -22.977459
rhand -32.679790 -26.565111
rfingers 7.837522
rthumb -3.340018 -59.519020
lclavicle -0.000000 0.000000
lhumerus -22.865150 -26.635290 96.750397
lradius 42.211510
lwrist 12.308670
lhand -16.952761 -28.393749
lfingers 7.837522
lthumb 11.844470 4.280628
rfemur -38.816471 6.420216 15.433990
rtibia 42.641609
rfoot -22.912670 -9.087011
rtoes -18.185860
lfemur 1.781912 0.279642 -32.098110
ltibia 15.897090
lfoot -18.868961 6.233777
ltoes -2.614711
104
root 10.349185 17.917351 -25.047440 3.422133 0.460094 4.587330
lowerback -8.088168 -2.761737 -4.925547
upperback -0.330988 -3.347025 1.984554
thorax 4.560688 -1.775653 4.464625
lowerneck -22.101089 -5.532329 -14.268760
upperneck 22.838751 -6.412395 12.524270
head 11.811251 -2.622202 5.954740
rclavicle -0.000000 -0.000000
rhumerus -49.151848 11.711149 -95.294540
rradius 40.936832
rwrist -22.669790
rhand -33.394680 -26.959131
rfingers 7.837522
rthumb -4.030312 -59.902153
lclavicle -0.000000 -0.000000
lhumerus -22.976910 -26.994881 96.918358
lradius 42.727081
lwrist 12.785410
lhand -16.268560 -27.984991
lfingers 7.837522
lthumb 12.504470 4.654100
rfemur -39.198280 6.650050 14.745060
rtibia 41.196209
rfoot -22.817080 -8.473145
rtoes -19.905270
lfemur 3.266956 0.220684 -32.344177
ltibia 14.183840
lfoot -18.544682 5.749238
ltoes -2.690611
105
root 10.347931 17.914381 -24.896961 3.582733 0.774140 4.708715
lowerback -8.369416 -2.820103 -5.051376
upperback -0.328754 -3.397064 1.877326
thorax 4.727030 -1.805177 4.406666
lowerneck -22.363329 -5.473479 -13.858900
upperneck 23.092630 -6.440489 12.490940
head 11.942809 -2.599179 5.876255
rclavicle -0.000000 0.000000
rhumerus -49.300350 11.499400 -95.329193
rradius 40.737289
rwrist -22.532070
rhand -33.161697 -26.624069
rfingers 7.837522
rthumb -3.805340 -59.570938
lclavicle -0.000000 0.000000
lhumerus -23.193390 -27.555990 97.033417
lradius 43.433941
lwrist 13.288000
lhand -16.148439 -27.730999
lfingers 7.837522
lthumb 12.620299 4.901644
rfemur -39.707466 7.117066 14.149960
rtibia 39.777760
rfoot -22.896280 -7.924851
rtoes -19.831129
lfemur 4.588540 0.273324 -32.418652
ltibia 12.488959
lfoot -18.248890 5.521032
ltoes -4.075808
106
root 10.348106 17.923950 -24.747799 3.873243 1.085520 4.401694
lowerback -8.677163 -2.865973 -4.784395
upperback -0.457030 -3.474196 1.987304
thorax 4.765453 -1.837176 4.352601
lowerneck -22.186338 -5.439577 -13.527141
upperneck 23.002651 -6.435517 12.189760
head 11.853710 -2.609145 5.702884
rclavicle 0.000000 -0.000000
rhumerus -49.372948 11.279400 -95.142296
rradius 40.435669
rwrist -22.406340
rhand -32.680450 -25.792580
rfingers 7.837522
rthumb -3.340557 -58.746490
lclavicle 0.000000 -0.000000
lhumerus -23.772320 -28.168360 97.471436
lradius 44.265980
lwrist 13.794880
lhand -16.655760 -27.372400
lfingers 7.837522
lthumb 12.131021 5.286952
rfemur -40.315220 7.783886 13.937990
rtibia 38.443680
rfoot -22.968990 -7.839447
rtoes -18.957619
lfemur 5.777816 0.348502 -32.014290
ltibia 10.716057
lfoot -17.883471 5.254568
ltoes -4.288361
